<?xml version="1.0" encoding="UTF-8" standalone="no"?>
<!-- Created with Inkscape (http://www.inkscape.org/) -->

<svg
   width="120mm"
   height="110mm"
   viewBox="0 0 120 110"
   version="1.1"
   id="svg1"
   xml:space="preserve"
   inkscape:version="1.4.3 (0d15f75, 2025-12-25)"
   sodipodi:docname="logo.svg"
   inkscape:export-filename="logo.png"
   inkscape:export-xdpi="96"
   inkscape:export-ydpi="96"
   xmlns:inkscape="http://www.inkscape.org/namespaces/inkscape"
   xmlns:sodipodi="http://sodipodi.sourceforge.net/DTD/sodipodi-0.dtd"
   xmlns="http://www.w3.org/2000/svg"
   xmlns:svg="http://www.w3.org/2000/svg"><sodipodi:namedview
     id="namedview1"
     pagecolor="#ffffff"
     bordercolor="#eeeeee"
     borderopacity="1"
     inkscape:showpageshadow="0"
     inkscape:pageopacity="0"
     inkscape:pagecheckerboard="true"
     inkscape:deskcolor="#d1d1d1"
     inkscape:document-units="mm"
     showguides="true"
     showborder="true"
     borderlayer="true"
     inkscape:zoom="1.4736956"
     inkscape:cx="-32.571177"
     inkscape:cy="161.83804"
     inkscape:window-width="3440"
     inkscape:window-height="1369"
     inkscape:window-x="2552"
     inkscape:window-y="-8"
     inkscape:window-maximized="1"
     inkscape:current-layer="g22" /><defs
     id="defs1" /><g
     inkscape:label="Layer 1"
     inkscape:groupmode="layer"
     id="layer1"
     style="display:inline"
     transform="translate(-48.41875,-99.954314)"><g
       id="g22"
       transform="translate(5.098955,5.758407)"><path
         d="M 103.45208,104.93468 C 99.508411,106.78557 69.720405,121.0745 60.854167,125.4125 H 146.05 c -7.32246,-3.51345 -39.0844,-18.82452 -42.59792,-20.47782 z"
         style="display:inline;fill:#c5d4ce;fill-opacity:1"
         id="path4"
         inkscape:label="header"
         sodipodi:nodetypes="cccc" /><path
         id="path1-1"
         style="display:inline;fill:#6fa296;fill-opacity:1;stroke:none"
         inkscape:label="key"
         d="m 102.5056,142.94353 -5.485074,0.28702 -0.920129,2.38874 h 1.640294 v -1.33796 l 1.132492,-4e-5 -0.008,1.338 h 0.618887 l 0.90824,0.43541 v 0.87685 l -0.90824,0.44143 -0.610957,-0.009 v 1.13399 l -1.129594,3.8e-4 -0.0029,-1.13437 h -1.640297 l 0.920129,2.21699 h 5.485149 c -0.0924,6.04031 -0.30628,14.46913 -1.0044,16.96021 -1.35128,1.35128 -1.5136,3.41271 -1.5136,3.41271 -0.37826,0 -1.3304,0.27091 -1.962159,0.53123 -4.61436,1.90133 -3.546668,8.68159 2.116669,8.72919 0,1.88712 1.37613,3.47627 3.17759,3.47627 1.79286,0 3.17241,-1.58915 3.17241,-3.47627 6.39533,-0.0572 5.95541,-6.73173 2.6448,-8.72919 -0.90364,-0.54521 -1.89111,-0.52823 -2.90938,-0.53123 0,0 -0.0477,-2.07121 -1.43412,-3.41271 -0.88676,-2.44645 -0.3696,-23.60317 -0.4155,-25.10679 -0.0412,-1.35157 -1.87231,-1.31542 -1.87231,-0.0224 v 1.53159 z m 0.71415,25.98525 c 0.44243,0 1.02764,0.42196 1.02764,1.02831 0,0.79617 -0.86104,1.80346 -1.02764,2.04715 0,0 -0.95519,-1.335 -0.95519,-2.04715 0,-0.64871 0.4594,-1.02831 0.95519,-1.02831 z m -3.28166,2.87006 c 1.58632,0 2.87218,1.28637 2.87218,2.87269 0,1.58632 -1.28586,2.87217 -2.87218,2.87217 -1.586323,0 -2.872692,-1.28585 -2.872692,-2.87217 0,-1.58632 1.286369,-2.87269 2.872692,-2.87269 z m 6.80734,0 c 1.58632,0 2.87269,1.28637 2.87269,2.87269 0,1.58632 -1.28637,2.87217 -2.87269,2.87217 -1.58632,0 -2.87218,-1.28585 -2.87218,-2.87217 0,-1.58632 1.28586,-2.87269 2.87218,-2.87269 z m -3.42563,6.52466 c 0.94502,0 1.41053,0.81654 1.41025,1.42782 -7e-5,0.78083 -0.63304,1.4138 -1.41387,1.41387 -0.78083,-7e-5 -1.4138,-0.63304 -1.41387,-1.41387 7e-5,-0.77158 0.63792,-1.42782 1.41749,-1.42782 z"
         sodipodi:nodetypes="scccccccccccccccccccccscsccsscsscsssssssscssscccscc" /><path
         style="display:inline;fill:#364a5c;fill-opacity:1;stroke:none"
         d="m 48.41875,129.39247 c 36.512778,0.0564 73.28966,-0.14057 109.80209,-0.2758 v -3.26789 c -2.88286,-1.63636 -46.49062,-22.00067 -54.76875,-25.894466 -8.181174,3.893796 -40.792318,19.245096 -55.03334,26.101876 v 3.33628 M 146.05,125.4125 H 60.854167 c 17.836082,-8.77466 36.320787,-17.55345 42.597923,-20.47785 11.37708,5.31495 28.41734,13.71099 42.59791,20.47785 z m -45.77292,-4.49792 h 6.35001 c -0.38419,-1.36388 -1.3336,-3.35483 -1.04466,-4.7625 0.3705,-1.80498 1.39621,-2.8766 0.68306,-4.4873 -1.08099,-2.44148 -4.38429,-2.31567 -5.60296,0 -0.947039,1.79951 0.40514,2.82725 0.66003,4.4873 0.22601,1.47183 -0.71825,3.33517 -1.04548,4.7625 m -45.772913,9.78959 v 3.96875 H 152.4 v -3.96875 H 54.504167 m 1.741796,55.56258 H 68.347128 L 67.733336,140.49383 H 56.885417 c 0,23.8453 -0.639454,31.20617 -0.639454,45.77292 z m -2.535546,1.32283 v 0 m 10.212777,-43.8406 c 0,-0.92047 1.349684,-0.91505 1.349684,0 v 38.28603 c 0,0.6897 -1.349684,0.70053 -1.349684,0 z m -4.598072,0.0318 c 0,-0.92047 1.349684,-0.91505 1.349684,0 v 38.28603 c 0,0.6897 -1.349684,0.70053 -1.349684,0 z m -5.614654,43.8088 v 3.96875 h 99.425472 v -3.96875 H 53.710416 M 48.41875,193.675 v 0 m 0,0 v 4.7625 H 158.22084 V 193.675 H 48.41875 m 6.459919,-58.02563 h 15.333547 c 2.113698,0 2.265456,3.8811 0,3.8811 H 54.878669 c -2.045391,0 -1.954952,-3.8811 0,-3.8811 z m 21.216357,0 h 15.333547 c 2.113698,0 2.265456,3.8811 0,3.8811 H 76.095026 c -2.045391,0 -1.954952,-3.8811 0,-3.8811 z m 39.139724,0 h 15.33354 c 2.1137,0 2.26546,3.8811 0,3.8811 h -15.33354 c -2.04539,0 -1.95496,-3.8811 0,-3.8811 z m 21.23652,0 h 15.33355 c 2.1137,0 2.26546,3.8811 0,3.8811 h -15.33355 c -2.04539,0 -1.95495,-3.8811 0,-3.8811 z M 77.509626,186.26675 H 89.610791 L 88.996999,140.49383 H 78.14908 c 0,23.8453 -0.639454,31.20617 -0.639454,45.77292 z m 7.677231,-42.51777 c 0,-0.92047 1.349684,-0.91505 1.349684,0 v 38.28603 c 0,0.6897 -1.349684,0.70053 -1.349684,0 z m -4.598072,0.0318 c 0,-0.92047 1.349684,-0.91505 1.349684,0 v 38.28603 c 0,0.6897 -1.349684,0.70053 -1.349684,0 z m 36.157815,42.48598 h 12.10117 l -0.6138,-45.77293 h -10.84792 c 0,23.84531 -0.63945,31.20618 -0.63945,45.77293 z m 7.67723,-42.51778 c 0,-0.92047 1.34969,-0.91505 1.34969,0 v 38.28604 c 0,0.6897 -1.34969,0.70053 -1.34969,0 z m -4.59807,0.0318 c 0,-0.92047 1.34968,-0.91505 1.34968,0 v 38.28604 c 0,0.6897 -1.34968,0.70053 -1.34968,0 z m 18.08751,42.48597 h 12.10116 l -0.61379,-45.77292 h -10.84792 c 0,23.8453 -0.63945,31.20617 -0.63945,45.77292 z m 7.67723,-42.51777 c 0,-0.92047 1.34968,-0.91505 1.34968,0 v 38.28603 c 0,0.6897 -1.34968,0.70053 -1.34968,0 z m -4.59807,0.0318 c 0,-0.92047 1.34968,-0.91505 1.34968,0 v 38.28603 c 0,0.6897 -1.34968,0.70053 -1.34968,0 z"
         id="path1"
         sodipodi:nodetypes="cccccccccccccssssccccccccccccssssssssssscccccccccccsssssssssssssssssssscccccsssssssssscccccsssssssssscccccssssssssss"
         inkscape:label="structure" /></g></g></svg>
